ffmpeg version N-82167-g5e96558 Copyright (c) 2000-2016 the FFmpeg developers
  built with gcc 5.4.0 (Ubuntu 5.4.0-6ubuntu1~16.04.2) 20160609
  configuration: --prefix=/root/ffmpeg_build --pkg-config-flags=--static --extra-cflags=-I/root/ffmpeg_build/include --extra-ldflags=-L/root/ffmpeg_build/lib --bindir=/root/bin --enable-gpl --enable-libass --enable-libfdk-aac --enable-libfreetype --enable-libmp3lame --enable-libopus --enable-libtheora --enable-libvorbis --enable-libx264 --enable-libx265 --enable-nonfree
  libavutil      55. 35.100 / 55. 35.100
  libavcodec     57. 65.100 / 57. 65.100
  libavformat    57. 57.100 / 57. 57.100
  libavdevice    57.  2.100 / 57.  2.100
  libavfilter     6. 66.100 /  6. 66.100
  libswscale      4.  3.100 /  4.  3.100
  libswresample   2.  4.100 /  2.  4.100
  libpostproc    54.  2.100 / 54.  2.100
Input #0, matroska,webm, from '/media/yubikiri/bot/queue/3AnimePahe_Detective_Conan_-_062_720p_Fansub.mkv':
  Metadata:
    title           : 3|Text||0|0
    ALBUM           : Anime
    LANGUAGE        : Undefined
    ENCODER         : Lavf57.57.100
  Duration: 00:24:29.05, start: 0.000000, bitrate: 976 kb/s
    Stream #0:0: Video: mpeg4 (Advanced Simple Profile), yuv420p, 640x480 [SAR 1:1 DAR 4:3], 23.98 fps, 23.98 tbr, 1k tbn, 23.98 tbc (default)
    Metadata:
      DURATION        : 00:24:29.051000000
    Stream #0:1: Audio: mp3, 48000 Hz, stereo, s16p, 128 kb/s (default)
    Metadata:
      DURATION        : 00:24:29.016000000
[libx264 @ 0x39d52a0] using SAR=1/1
[libx264 @ 0x39d52a0] using cpu capabilities: MMX2 SSE2Fast SSSE3 SSE4.2 AVX FMA3 AVX2 LZCNT BMI2
[libx264 @ 0x39d52a0] profile High, level 3.1
[libx264 @ 0x39d52a0] 264 - core 148 r2643 5c65704 - H.264/MPEG-4 AVC codec - Copyleft 2003-2015 - http://www.videolan.org/x264.html - options: cabac=1 ref=8 deblock=1:1:1 analyse=0x3:0x133 me=umh subme=7 psy=1 psy_rd=0.00:0.00 mixed_ref=1 me_range=8 chroma_me=1 trellis=0 8x8dct=1 cqm=0 deadzone=21,11 fast_pskip=1 chroma_qp_offset=0 threads=8 lookahead_threads=2 sliced_threads=0 nr=0 decimate=1 interlaced=0 bluray_compat=0 constrained_intra=0 bframes=3 b_pyramid=2 b_adapt=2 b_bias=0 direct=1 weightb=1 open_gop=0 weightp=2 keyint=240 keyint_min=24 scenecut=40 intra_refresh=0 rc_lookahead=60 rc=crf mbtree=1 crf=27.0 qcomp=0.60 qpmin=0 qpmax=69 qpstep=4 ip_ratio=1.40 aq=1:1.00
[libfdk_aac @ 0x39d6640] Note, the VBR setting is unsupported and only works with some parameter combinations
Output #0, mp4, to '/media/yubikiri/bot/queue/3AnimePahe_Detective_Conan_-_062_720p_Fansub.mkv_encoded.mp4':
  Metadata:
    encoder         : Lavf57.57.100
    Stream #0:0: Video: h264 (libx264) ([33][0][0][0] / 0x0021), yuv420p, 640x480 [SAR 1:1 DAR 4:3], q=-1--1, 23.98 fps, 24k tbn, 23.98 tbc (default)
    Metadata:
      encoder         : Lavc57.65.100 libx264
    Side data:
      cpb: bitrate max/min/avg: 0/0/0 buffer size: 0 vbv_delay: -1
    Stream #0:1: Audio: aac (libfdk_aac) (HE-AACv2) ([64][0][0][0] / 0x0040), 48000 Hz, stereo, s16, 48 kb/s (default)
    Metadata:
      encoder         : Lavc57.65.100 libfdk_aac
Stream mapping:
  Stream #0:0 -> #0:0 (mpeg4 (native) -> h264 (libx264))
  Stream #0:1 -> #0:1 (mp3 (native) -> aac (libfdk_aac))
Press [q] to stop, [?] for help
frame=   86 fps=0.0 q=32.0 size=      34kB time=00:00:03.73 bitrate=  75.3kbits/s dup=1 drop=0 speed=7.38x    frame=  123 fps=121 q=32.0 size=     113kB time=00:00:05.27 bitrate= 176.0kbits/s dup=1 drop=0 speed= 5.2x    frame=  155 fps=102 q=32.0 size=     187kB time=00:00:06.63 bitrate= 231.0kbits/s dup=1 drop=0 speed=4.38x    frame=  185 fps= 92 q=32.0 size=     267kB time=00:00:07.91 bitrate= 276.3kbits/s dup=1 drop=0 speed=3.93x    frame=  222 fps= 88 q=32.0 size=     366kB time=00:00:09.36 bitrate= 320.5kbits/s dup=1 drop=0 speed=3.72x    frame=  256 fps= 84 q=32.0 size=     451kB time=00:00:10.85 bitrate= 340.5kbits/s dup=1 drop=0 speed=3.56x    frame=  298 fps= 84 q=32.0 size=     567kB time=00:00:12.60 bitrate= 368.4kbits/s dup=1 drop=0 speed=3.55x    frame=  338 fps= 82 q=32.0 size=     663kB time=00:00:14.27 bitrate= 380.8kbits/s dup=1 drop=0 speed=3.45x    frame=  378 fps= 81 q=32.0 size=     757kB time=00:00:15.93 bitrate= 389.3kbits/s dup=1 drop=0 speed=3.43x    frame=  418 fps= 81 q=32.0 size=     849kB time=00:00:17.60 bitrate= 395.0kbits/s dup=1 drop=0 speed=3.39x    frame=  470 fps= 83 q=32.0 size=     955kB time=00:00:19.73 bitrate= 396.4kbits/s dup=1 drop=0 speed=3.47x    frame=  553 fps= 89 q=32.0 size=    1034kB time=00:00:23.23 bitrate= 364.4kbits/s dup=1 drop=0 speed=3.75x    frame=  588 fps= 82 q=32.0 size=    1121kB time=00:00:24.68 bitrate= 372.0kbits/s dup=1 drop=0 speed=3.44x    frame=  641 fps= 83 q=32.0 size=    1208kB time=00:00:26.90 bitrate= 367.7kbits/s dup=1 drop=0 speed= 3.5x    frame=  697 fps= 85 q=32.0 size=    1316kB time=00:00:29.20 bitrate= 369.2kbits/s dup=1 drop=0 speed=3.56x    frame=  744 fps= 85 q=32.0 size=    1424kB time=00:00:31.21 bitrate= 373.8kbits/s dup=1 drop=0 speed=3.58x    frame=  792 fps= 86 q=32.0 size=    1502kB time=00:00:33.17 bitrate= 370.9kbits/s dup=1 drop=0 speed= 3.6x    frame=  841 fps= 86 q=32.0 size=    1601kB time=00:00:35.22 bitrate= 372.4kbits/s dup=1 drop=0 speed= 3.6x    frame=  901 fps= 88 q=32.0 size=    1667kB time=00:00:37.73 bitrate= 361.9kbits/s dup=1 drop=0 speed=3.67x    frame=  959 fps= 89 q=32.0 size=    1776kB time=00:00:40.17 bitrate= 362.1kbits/s dup=1 drop=0 speed=3.72x    frame= 1020 fps= 90 q=32.0 size=    1859kB time=00:00:42.68 bitrate= 356.8kbits/s dup=1 drop=0 speed=3.78x    frame= 1076 fps= 91 q=32.0 size=    1986kB time=00:00:45.03 bitrate= 361.3kbits/s dup=1 drop=0 speed=3.82x    frame= 1136 fps= 92 q=32.0 size=    2102kB time=00:00:47.55 bitrate= 362.2kbits/s dup=1 drop=0 speed=3.87x    frame= 1197 fps= 94 q=32.0 size=    2192kB time=00:00:50.07 bitrate= 358.7kbits/s dup=1 drop=0 speed=3.91x    frame= 1287 fps= 97 q=32.0 size=    2253kB time=00:00:53.82 bitrate= 342.9kbits/s dup=1 drop=0 speed=4.05x    frame= 1339 fps= 97 q=32.0 size=    2376kB time=00:00:56.00 bitrate= 347.5kbits/s dup=1 drop=0 speed=4.04x    frame= 1369 fps= 95 q=32.0 size=    2472kB time=00:00:57.28 bitrate= 353.6kbits/s dup=1 drop=0 speed=3.99x    frame= 1403 fps= 94 q=32.0 size=    2584kB time=00:00:58.68 bitrate= 360.7kbits/s dup=1 drop=0 speed=3.93x    frame= 1444 fps= 94 q=32.0 size=    2680kB time=00:01:00.39 bitrate= 363.5kbits/s dup=1 drop=0 speed=3.91x    frame= 1487 fps= 93 q=32.0 size=    2767kB time=00:01:02.18 bitrate= 364.6kbits/s dup=1 drop=0 speed= 3.9x    frame= 1528 fps= 93 q=32.0 size=    2877kB time=00:01:03.89 bitrate= 368.9kbits/s dup=1 drop=0 speed=3.88x    frame= 1556 fps= 92 q=32.0 size=    2944kB time=00:01:05.04 bitrate= 370.8kbits/s dup=1 drop=0 speed=3.83x    frame= 1590 fps= 91 q=32.0 size=    3021kB time=00:01:06.49 bitrate= 372.1kbits/s dup=1 drop=0 speed= 3.8x    frame= 1628 fps= 90 q=32.0 size=    3149kB time=00:01:08.07 bitrate= 379.0kbits/s dup=1 drop=0 speed=3.78x    frame= 1665 fps= 90 q=32.0 size=    3259kB time=00:01:09.61 bitrate= 383.6kbits/s dup=1 drop=0 speed=3.76x    frame= 1725 fps= 91 q=32.0 size=    3358kB time=00:01:12.08 bitrate= 381.6kbits/s dup=1 drop=0 speed=3.79x    frame= 1812 fps= 93 q=32.0 size=    3464kB time=00:01:15.75 bitrate= 374.6kbits/s dup=1 drop=0 speed=3.88x    frame= 1870 fps= 93 q=32.0 size=    3556kB time=00:01:18.14 bitrate= 372.8kbits/s dup=1 drop=0 speed=3.91x    frame= 1915 fps= 93 q=32.0 size=    3641kB time=00:01:20.02 bitrate= 372.8kbits/s dup=1 drop=0 speed= 3.9x    frame= 1969 fps= 93 q=32.0 size=    3745kB time=00:01:22.28 bitrate= 372.8kbits/s dup=1 drop=0 speed=3.91x    frame= 2052 fps= 95 q=32.0 size=    3838kB time=00:01:25.73 bitrate= 366.7kbits/s dup=1 drop=0 speed=3.98x    frame= 2089 fps= 95 q=32.0 size=    3933kB time=00:01:27.27 bitrate= 369.2kbits/s dup=1 drop=0 speed=3.96x    frame= 2125 fps= 94 q=32.0 size=    4044kB time=00:01:28.81 bitrate= 373.0kbits/s dup=1 drop=0 speed=3.94x    frame= 2174 fps= 94 q=32.0 size=    4106kB time=00:01:30.85 bitrate= 370.2kbits/s dup=1 drop=0 speed=3.94x    frame= 2224 fps= 94 q=32.0 size=    4190kB time=00:01:32.90 bitrate= 369.5kbits/s dup=1 drop=0 speed=3.94x    frame= 2304 fps= 96 q=32.0 size=    4264kB time=00:01:36.27 bitrate= 362.8kbits/s dup=1 drop=0 speed=   4x    frame= 2367 fps= 96 q=32.0 size=    4349kB time=00:01:38.92 bitrate= 360.2kbits/s dup=1 drop=0 speed=4.03x    frame= 2407 fps= 96 q=32.0 size=    4439kB time=00:01:40.54 bitrate= 361.6kbits/s dup=1 drop=0 speed=4.01x    frame= 2448 fps= 96 q=32.0 size=    4555kB time=00:01:42.25 bitrate= 365.0kbits/s dup=1 drop=0 speed=   4x    frame= 2498 fps= 96 q=32.0 size=    4629kB time=00:01:44.34 bitrate= 363.4kbits/s dup=1 drop=0 speed=3.99x    frame= 2552 fps= 96 q=32.0 size=    4725kB time=00:01:46.60 bitrate= 363.1kbits/s dup=1 drop=0 speed=   4x    frame= 2597 fps= 96 q=32.0 size=    4788kB time=00:01:48.48 bitrate= 361.6kbits/s dup=1 drop=0 speed=   4x    frame= 2653 fps= 96 q=32.0 size=    4889kB time=00:01:50.78 bitrate= 361.5kbits/s dup=1 drop=0 speed=4.01x    frame= 2695 fps= 96 q=32.0 size=    4974kB time=00:01:52.57 bitrate= 361.9kbits/s dup=1 drop=0 speed=   4x    frame= 2734 fps= 95 q=32.0 size=    5050kB time=00:01:54.19 bitrate= 362.3kbits/s dup=1 drop=0 speed=3.99x    frame= 2796 fps= 96 q=32.0 size=    5120kB time=00:01:56.80 bitrate= 359.1kbits/s dup=1 drop=0 speed=4.01x    frame= 2856 fps= 96 q=32.0 size=    5224kB time=00:01:59.27 bitrate= 358.8kbits/s dup=1 drop=0 speed=4.02x    frame= 2926 fps= 97 q=32.0 size=    5311kB time=00:02:02.21 bitrate= 356.0kbits/s dup=1 drop=0 speed=4.05x    frame= 2998 fps= 98 q=32.0 size=    5383kB time=00:02:05.20 bitrate= 352.2kbits/s dup=1 drop=0 speed=4.08x    frame= 3066 fps= 98 q=32.0 size=    5463kB time=00:02:08.02 bitrate= 349.6kbits/s dup=1 drop=0 speed= 4.1x    frame= 3100 fps= 98 q=29.0 size=    5564kB time=00:02:09.47 bitrate= 352.0kbits/s dup=1 drop=0 speed=4.08x    frame= 3137 fps= 97 q=32.0 size=    5673kB time=00:02:11.00 bitrate= 354.7kbits/s dup=1 drop=0 speed=4.06x    frame= 3170 fps= 97 q=32.0 size=    5760kB time=00:02:12.37 bitrate= 356.5kbits/s dup=1 drop=0 speed=4.04x    frame= 3219 fps= 97 q=32.0 size=    5852kB time=00:02:14.42 bitrate= 356.6kbits/s dup=1 drop=0 speed=4.04x    frame= 3263 fps= 96 q=32.0 size=    5935kB time=00:02:16.25 bitrate= 356.8kbits/s dup=1 drop=0 speed=4.03x    frame= 3304 fps= 96 q=32.0 size=    6045kB time=00:02:17.96 bitrate= 358.9kbits/s dup=1 drop=0 speed=4.01x    frame= 3356 fps= 96 q=32.0 size=    6122kB time=00:02:20.13 bitrate= 357.9kbits/s dup=1 drop=0 speed=4.01x    frame= 3394 fps= 96 q=32.0 size=    6209kB time=00:02:21.71 bitrate= 358.9kbits/s dup=1 drop=0 speed=   4x    frame= 3457 fps= 96 q=32.0 size=    6312kB time=00:02:24.32 bitrate= 358.3kbits/s dup=1 drop=0 speed=4.02x    frame= 3523 fps= 97 q=32.0 size=    6389kB time=00:02:27.09 bitrate= 355.8kbits/s dup=1 drop=0 speed=4.04x    frame= 3580 fps= 97 q=32.0 size=    6454kB time=00:02:29.48 bitrate= 353.7kbits/s dup=1 drop=0 speed=4.05x    frame= 3620 fps= 97 q=32.0 size=    6588kB time=00:02:31.14 bitrate= 357.1kbits/s dup=1 drop=0 speed=4.04x    frame= 3710 fps= 98 q=32.0 size=    6664kB time=00:02:34.90 bitrate= 352.4kbits/s dup=1 drop=0 speed=4.08x    frame= 3762 fps= 98 q=32.0 size=    6737kB time=00:02:37.03 bitrate= 351.4kbits/s dup=1 drop=0 speed=4.08x    frame= 3810 fps= 98 q=32.0 size=    6806kB time=00:02:39.08 bitrate= 350.5kbits/s dup=1 drop=0 speed=4.08x    frame= 3877 fps= 98 q=32.0 size=    6878kB time=00:02:41.85 bitrate= 348.1kbits/s dup=1 drop=0 speed= 4.1x    frame= 3953 fps= 99 q=32.0 size=    6949kB time=00:02:45.01 bitrate= 345.0kbits/s dup=1 drop=0 speed=4.13x    frame= 4016 fps= 99 q=32.0 size=    7051kB time=00:02:47.65 bitrate= 344.5kbits/s dup=1 drop=0 speed=4.14x    frame= 4104 fps=100 q=32.0 size=    7116kB time=00:02:51.32 bitrate= 340.2kbits/s dup=1 drop=0 speed=4.18x    frame= 4181 fps=101 q=32.0 size=    7209kB time=00:02:54.57 bitrate= 338.3kbits/s dup=1 drop=0 speed=4.21x    frame= 4257 fps=101 q=29.0 size=    7263kB time=00:02:57.72 bitrate= 334.8kbits/s dup=1 drop=0 speed=4.23x    frame= 4330 fps=102 q=32.0 size=    7375kB time=00:03:00.75 bitrate= 334.2kbits/s dup=1 drop=0 speed=4.25x    frame= 4414 fps=103 q=32.0 size=    7450kB time=00:03:04.25 bitrate= 331.2kbits/s dup=1 drop=0 speed=4.28x    frame= 4499 fps=103 q=32.0 size=    7512kB time=00:03:07.79 bitrate= 327.7kbits/s dup=1 drop=0 speed=4.31x    frame= 4574 fps=104 q=32.0 size=    7607kB time=00:03:10.95 bitrate= 326.3kbits/s dup=1 drop=0 speed=4.34x    frame= 4656 fps=105 q=32.0 size=    7725kB time=00:03:14.36 bitrate= 325.6kbits/s dup=1 drop=0 speed=4.36x    frame= 4724 fps=105 q=32.0 size=    7788kB time=00:03:17.18 bitrate= 323.6kbits/s dup=1 drop=0 speed=4.37x    frame= 4773 fps=105 q=32.0 size=    7867kB time=00:03:19.23 bitrate= 323.5kbits/s dup=1 drop=0 speed=4.36x    frame= 4823 fps=104 q=32.0 size=    7932kB time=00:03:21.32 bitrate= 322.7kbits/s dup=1 drop=0 speed=4.36x    frame= 4885 fps=105 q=32.0 size=    8021kB time=00:03:23.88 bitrate= 322.3kbits/s dup=1 drop=0 speed=4.37x    frame= 4957 fps=105 q=32.0 size=    8134kB time=00:03:26.91 bitrate= 322.1kbits/s dup=1 drop=0 speed=4.39x    frame= 5026 fps=105 q=32.0 size=    8194kB time=00:03:29.77 bitrate= 320.0kbits/s dup=1 drop=0 speed= 4.4x    frame= 5090 fps=106 q=32.0 size=    8281kB time=00:03:32.45 bitrate= 319.3kbits/s dup=1 drop=0 speed=4.41x    frame= 5154 fps=106 q=32.0 size=    8376kB time=00:03:35.14 bitrate= 318.9kbits/s dup=1 drop=0 speed=4.42x    frame= 5221 fps=106 q=32.0 size=    8429kB time=00:03:37.92 bitrate= 316.8kbits/s dup=1 drop=0 speed=4.43x    frame= 5280 fps=106 q=32.0 size=    8496kB time=00:03:40.35 bitrate= 315.9kbits/s dup=1 drop=0 speed=4.43x    frame= 5350 fps=107 q=32.0 size=    8597kB time=00:03:43.29 bitrate= 315.4kbits/s dup=1 drop=0 speed=4.45x    frame= 5417 fps=107 q=32.0 size=    8650kB time=00:03:46.11 bitrate= 313.4kbits/s dup=1 drop=0 speed=4.46x    frame= 5475 fps=107 q=32.0 size=    8716kB time=00:03:48.50 bitrate= 312.5kbits/s dup=1 drop=0 speed=4.46x    frame= 5532 fps=107 q=32.0 size=    8804kB time=00:03:50.89 bitrate= 312.4kbits/s dup=1 drop=0 speed=4.46x    frame= 5607 fps=107 q=29.0 size=    8900kB time=00:03:54.00 bitrate= 311.6kbits/s dup=1 drop=0 speed=4.48x    frame= 5671 fps=107 q=32.0 size=    9010kB time=00:03:56.69 bitrate= 311.8kbits/s dup=1 drop=0 speed=4.49x    frame= 5737 fps=108 q=32.0 size=    9113kB time=00:03:59.46 bitrate= 311.8kbits/s dup=1 drop=0 speed= 4.5x    frame= 5797 fps=108 q=32.0 size=    9178kB time=00:04:01.94 bitrate= 310.8kbits/s dup=1 drop=0 speed= 4.5x    frame= 5855 fps=108 q=32.0 size=    9256kB time=00:04:04.37 bitrate= 310.3kbits/s dup=1 drop=0 speed= 4.5x    frame= 5904 fps=108 q=32.0 size=    9359kB time=00:04:06.42 bitrate= 311.1kbits/s dup=1 drop=0 speed= 4.5x    frame= 5968 fps=108 q=32.0 size=    9448kB time=00:04:09.06 bitrate= 310.7kbits/s dup=1 drop=0 speed= 4.5x    frame= 6037 fps=108 q=32.0 size=    9538kB time=00:04:11.96 bitrate= 310.1kbits/s dup=1 drop=0 speed=4.52x    frame= 6114 fps=109 q=32.0 size=    9612kB time=00:04:15.16 bitrate= 308.6kbits/s dup=1 drop=0 speed=4.53x    frame= 6195 fps=109 q=32.0 size=    9690kB time=00:04:18.53 bitrate= 307.0kbits/s dup=1 drop=0 speed=4.55x    frame= 6289 fps=110 q=32.0 size=    9745kB time=00:04:22.50 bitrate= 304.1kbits/s dup=1 drop=0 speed=4.58x    frame= 6362 fps=110 q=32.0 size=    9818kB time=00:04:25.49 bitrate= 302.9kbits/s dup=1 drop=0 speed=4.59x    frame= 6448 fps=111 q=32.0 size=    9883kB time=00:04:29.07 bitrate= 300.9kbits/s dup=1 drop=0 speed=4.61x    frame= 6517 fps=111 q=32.0 size=    9956kB time=00:04:31.97 bitrate= 299.9kbits/s dup=1 drop=0 speed=4.62x    frame= 6637 fps=112 q=32.0 size=   10034kB time=00:04:36.97 bitrate= 296.8kbits/s dup=1 drop=0 speed=4.67x    frame= 6744 fps=113 q=32.0 size=   10101kB time=00:04:41.45 bitrate= 294.0kbits/s dup=1 drop=0 speed= 4.7x    frame= 6828 fps=113 q=32.0 size=   10193kB time=00:04:44.95 bitrate= 293.0kbits/s dup=1 drop=0 speed=4.72x    frame= 6897 fps=113 q=32.0 size=   10285kB time=00:04:47.85 bitrate= 292.7kbits/s dup=1 drop=0 speed=4.73x    frame= 6970 fps=114 q=32.0 size=   10392kB time=00:04:50.83 bitrate= 292.7kbits/s dup=1 drop=0 speed=4.74x    frame= 7041 fps=114 q=32.0 size=   10481kB time=00:04:53.82 bitrate= 292.2kbits/s dup=1 drop=0 speed=4.75x    frame= 7118 fps=114 q=32.0 size=   10592kB time=00:04:57.06 bitrate= 292.1kbits/s dup=1 drop=0 speed=4.76x    frame= 7168 fps=114 q=32.0 size=   10700kB time=00:04:59.11 bitrate= 293.1kbits/s dup=1 drop=0 speed=4.76x    frame= 7213 fps=114 q=29.0 size=   10766kB time=00:05:00.99 bitrate= 293.0kbits/s dup=1 drop=0 speed=4.75x    frame= 7249 fps=113 q=32.0 size=   10869kB time=00:05:02.48 bitrate= 294.3kbits/s dup=1 drop=0 speed=4.73x    frame= 7288 fps=113 q=32.0 size=   10982kB time=00:05:04.10 bitrate= 295.8kbits/s dup=1 drop=0 speed=4.72x    frame= 7329 fps=113 q=32.0 size=   11055kB time=00:05:05.81 bitrate= 296.1kbits/s dup=1 drop=0 speed=4.71x    frame= 7378 fps=113 q=32.0 size=   11161kB time=00:05:07.86 bitrate= 297.0kbits/s dup=1 drop=0 speed= 4.7x    frame= 7456 fps=113 q=32.0 size=   11239kB time=00:05:11.14 bitrate= 295.9kbits/s dup=1 drop=0 speed=4.72x    frame= 7511 fps=113 q=32.0 size=   11296kB time=00:05:13.45 bitrate= 295.2kbits/s dup=1 drop=0 speed=4.71x    frame= 7568 fps=113 q=32.0 size=   11359kB time=00:05:15.79 bitrate= 294.7kbits/s dup=1 drop=0 speed=4.71x    frame= 7633 fps=113 q=32.0 size=   11450kB time=00:05:18.52 bitrate= 294.5kbits/s dup=1 drop=0 speed=4.72x    frame= 7698 fps=113 q=32.0 size=   11538kB time=00:05:21.21 bitrate= 294.3kbits/s dup=1 drop=0 speed=4.72x    frame= 7751 fps=113 q=32.0 size=   11602kB time=00:05:23.43 bitrate= 293.9kbits/s dup=1 drop=0 speed=4.72x    frame= 7806 fps=113 q=32.0 size=   11667kB time=00:05:25.73 bitrate= 293.4kbits/s dup=1 drop=0 speed=4.72x    frame= 7867 fps=113 q=32.0 size=   11744kB time=00:05:28.25 bitrate= 293.1kbits/s dup=1 drop=0 speed=4.72x    frame= 7926 fps=113 q=32.0 size=   11800kB time=00:05:30.73 bitrate= 292.3kbits/s dup=1 drop=0 speed=4.72x    frame= 7984 fps=113 q=32.0 size=   11855kB time=00:05:33.16 bitrate= 291.5kbits/s dup=1 drop=0 speed=4.72x    frame= 8022 fps=113 q=32.0 size=   11931kB time=00:05:34.74 bitrate= 292.0kbits/s dup=1 drop=0 speed=4.71x    frame= 8075 fps=113 q=32.0 size=   11987kB time=00:05:36.96 bitrate= 291.4kbits/s dup=1 drop=0 speed=4.71x    frame= 8135 fps=113 q=32.0 size=   12071kB time=00:05:39.43 bitrate= 291.3kbits/s dup=1 drop=0 speed=4.71x    frame= 8193 fps=113 q=32.0 size=   12162kB time=00:05:41.86 bitrate= 291.4kbits/s dup=1 drop=0 speed=4.71x    frame= 8252 fps=113 q=32.0 size=   12224kB time=00:05:44.34 bitrate= 290.8kbits/s dup=1 drop=0 speed=4.71x    frame= 8327 fps=113 q=32.0 size=   12274kB time=00:05:47.45 bitrate= 289.4kbits/s dup=1 drop=0 speed=4.72x    frame= 8405 fps=113 q=32.0 size=   12383kB time=00:05:50.69 bitrate= 289.3kbits/s dup=1 drop=0 speed=4.73x    frame= 8496 fps=114 q=32.0 size=   12436kB time=00:05:54.49 bitrate= 287.4kbits/s dup=1 drop=0 speed=4.75x    frame= 8588 fps=114 q=32.0 size=   12513kB time=00:05:58.33 bitrate= 286.1kbits/s dup=1 drop=0 speed=4.77x    frame= 8675 fps=115 q=32.0 size=   12609kB time=00:06:01.96 bitrate= 285.4kbits/s dup=1 drop=0 speed=4.79x    frame= 8777 fps=115 q=32.0 size=   12678kB time=00:06:06.23 bitrate= 283.6kbits/s dup=1 drop=0 speed=4.81x    frame= 8871 fps=116 q=32.0 size=   12749kB time=00:06:10.15 bitrate= 282.1kbits/s dup=1 drop=0 speed=4.83x    frame= 8925 fps=116 q=32.0 size=   12858kB time=00:06:12.41 bitrate= 282.8kbits/s dup=1 drop=0 speed=4.83x    frame= 8986 fps=116 q=32.0 size=   12916kB time=00:06:14.93 bitrate= 282.2kbits/s dup=1 drop=0 speed=4.83x    frame= 9055 fps=116 q=32.0 size=   12982kB time=00:06:17.83 bitrate= 281.5kbits/s dup=1 drop=0 speed=4.83x    frame= 9117 fps=116 q=32.0 size=   13058kB time=00:06:20.43 bitrate= 281.2kbits/s dup=1 drop=0 speed=4.84x    frame= 9188 fps=116 q=32.0 size=   13160kB time=00:06:23.38 bitrate= 281.2kbits/s dup=1 drop=0 speed=4.84x    frame= 9263 fps=116 q=32.0 size=   13211kB time=00:06:26.53 bitrate= 280.0kbits/s dup=1 drop=0 speed=4.85x    frame= 9344 fps=117 q=32.0 size=   13297kB time=00:06:29.86 bitrate= 279.4kbits/s dup=1 drop=0 speed=4.86x    frame= 9419 fps=117 q=32.0 size=   13351kB time=00:06:32.98 bitrate= 278.3kbits/s dup=1 drop=0 speed=4.87x    frame= 9487 fps=117 q=32.0 size=   13434kB time=00:06:35.84 bitrate= 278.0kbits/s dup=1 drop=0 speed=4.88x    frame= 9561 fps=117 q=32.0 size=   13524kB time=00:06:38.95 bitrate= 277.7kbits/s dup=1 drop=0 speed=4.88x    frame= 9631 fps=117 q=32.0 size=   13603kB time=00:06:41.85 bitrate= 277.3kbits/s dup=1 drop=0 speed=4.89x    frame= 9705 fps=117 q=32.0 size=   13699kB time=00:06:44.92 bitrate= 277.1kbits/s dup=1 drop=0 speed= 4.9x    frame= 9771 fps=117 q=32.0 size=   13786kB time=00:06:47.70 bitrate= 277.0kbits/s dup=1 drop=0 speed= 4.9x    frame= 9841 fps=118 q=32.0 size=   13869kB time=00:06:50.60 bitrate= 276.7kbits/s dup=1 drop=0 speed=4.91x    frame= 9917 fps=118 q=32.0 size=   13941kB time=00:06:53.76 bitrate= 276.0kbits/s dup=1 drop=0 speed=4.91x    frame= 9990 fps=118 q=32.0 size=   14008kB time=00:06:56.83 bitrate= 275.3kbits/s dup=1 drop=0 speed=4.92x    frame=10043 fps=118 q=32.0 size=   14063kB time=00:06:59.05 bitrate= 274.9kbits/s dup=1 drop=0 speed=4.92x    frame=10098 fps=118 q=32.0 size=   14145kB time=00:07:01.31 bitrate= 275.0kbits/s dup=1 drop=0 speed=4.92x    frame=10142 fps=118 q=32.0 size=   14206kB time=00:07:03.14 bitrate= 275.0kbits/s dup=1 drop=0 speed=4.91x    frame=10193 fps=118 q=32.0 size=   14273kB time=00:07:05.32 bitrate= 274.9kbits/s dup=1 drop=0 speed= 4.9x    frame=10247 fps=117 q=32.0 size=   14322kB time=00:07:07.54 bitrate= 274.4kbits/s dup=1 drop=0 speed= 4.9x    frame=10292 fps=117 q=32.0 size=   14391kB time=00:07:09.41 bitrate= 274.5kbits/s dup=1 drop=0 speed=4.89x    frame=10318 fps=117 q=32.0 size=   14478kB time=00:07:10.52 bitrate= 275.5kbits/s dup=1 drop=0 speed=4.87x    frame=10355 fps=117 q=29.0 size=   14556kB time=00:07:12.06 bitrate= 276.0kbits/s dup=1 drop=0 speed=4.86x    frame=10398 fps=116 q=32.0 size=   14643kB time=00:07:13.85 bitrate= 276.5kbits/s dup=1 drop=0 speed=4.86x    frame=10448 fps=116 q=32.0 size=   14707kB time=00:07:15.94 bitrate= 276.4kbits/s dup=1 drop=0 speed=4.85x    frame=10503 fps=116 q=32.0 size=   14793kB time=00:07:18.20 bitrate= 276.5kbits/s dup=1 drop=0 speed=4.85x    frame=10548 fps=116 q=32.0 size=   14862kB time=00:07:20.08 bitrate= 276.6kbits/s dup=1 drop=0 speed=4.84x    frame=10595 fps=116 q=32.0 size=   14954kB time=00:07:22.04 bitrate= 277.1kbits/s dup=1 drop=0 speed=4.84x    frame=10658 fps=116 q=32.0 size=   15038kB time=00:07:24.69 bitrate= 277.0kbits/s dup=1 drop=0 speed=4.84x    frame=10718 fps=116 q=32.0 size=   15089kB time=00:07:27.21 bitrate= 276.4kbits/s dup=1 drop=0 speed=4.84x    frame=10779 fps=116 q=32.0 size=   15145kB time=00:07:29.72 bitrate= 275.9kbits/s dup=1 drop=0 speed=4.84x    frame=10841 fps=116 q=32.0 size=   15197kB time=00:07:32.33 bitrate= 275.2kbits/s dup=1 drop=0 speed=4.84x    frame=10940 fps=116 q=32.0 size=   15293kB time=00:07:36.42 bitrate= 274.5kbits/s dup=1 drop=0 speed=4.86x    frame=11027 fps=117 q=29.0 size=   15379kB time=00:07:40.09 bitrate= 273.8kbits/s dup=1 drop=0 speed=4.87x    frame=11094 fps=117 q=32.0 size=   15472kB time=00:07:42.87 bitrate= 273.8kbits/s dup=1 drop=0 speed=4.88x    frame=11171 fps=117 q=32.0 size=   15555kB time=00:07:46.07 bitrate= 273.4kbits/s dup=1 drop=0 speed=4.88x    frame=11249 fps=117 q=32.0 size=   15643kB time=00:07:49.35 bitrate= 273.0kbits/s dup=1 drop=0 speed=4.89x    frame=11331 fps=118 q=32.0 size=   15720kB time=00:07:52.76 bitrate= 272.4kbits/s dup=1 drop=0 speed= 4.9x    frame=11403 fps=118 q=32.0 size=   15789kB time=00:07:55.75 bitrate= 271.9kbits/s dup=1 drop=0 speed=4.91x    frame=11463 fps=118 q=32.0 size=   15885kB time=00:07:58.27 bitrate= 272.1kbits/s dup=1 drop=0 speed=4.91x    frame=11534 fps=118 q=32.0 size=   15972kB time=00:08:01.21 bitrate= 271.9kbits/s dup=1 drop=0 speed=4.91x    frame=11613 fps=118 q=32.0 size=   16053kB time=00:08:04.50 bitrate= 271.4kbits/s dup=1 drop=0 speed=4.92x    frame=11710 fps=118 q=32.0 size=   16153kB time=00:08:08.55 bitrate= 270.8kbits/s dup=1 drop=0 speed=4.94x    frame=11816 fps=119 q=32.0 size=   16221kB time=00:08:12.99 bitrate= 269.5kbits/s dup=1 drop=0 speed=4.96x    frame=11896 fps=119 q=32.0 size=   16330kB time=00:08:16.32 bitrate= 269.5kbits/s dup=1 drop=0 speed=4.96x    frame=11976 fps=119 q=32.0 size=   16427kB time=00:08:19.64 bitrate= 269.3kbits/s dup=1 drop=0 speed=4.97x    frame=12080 fps=120 q=32.0 size=   16518kB time=00:08:24.00 bitrate= 268.5kbits/s dup=1 drop=0 speed=4.99x    frame=12179 fps=120 q=32.0 size=   16581kB time=00:08:28.13 bitrate= 267.3kbits/s dup=1 drop=0 speed=   5x    frame=12247 fps=120 q=32.0 size=   16662kB time=00:08:30.95 bitrate= 267.1kbits/s dup=1 drop=0 speed=   5x    frame=12331 fps=120 q=32.0 size=   16774kB time=00:08:34.45 bitrate= 267.1kbits/s dup=1 drop=0 speed=5.01x    frame=12386 fps=120 q=32.0 size=   16827kB time=00:08:36.75 bitrate= 266.8kbits/s dup=1 drop=0 speed=5.01x    frame=12429 fps=120 q=32.0 size=   16906kB time=00:08:38.55 bitrate= 267.1kbits/s dup=1 drop=0 speed=   5x    frame=12509 fps=120 q=32.0 size=   16984kB time=00:08:41.87 bitrate= 266.6kbits/s dup=1 drop=0 speed=5.01x    frame=12573 fps=120 q=32.0 size=   17065kB time=00:08:44.56 bitrate= 266.5kbits/s dup=1 drop=0 speed=5.01x    frame=12613 fps=120 q=32.0 size=   17164kB time=00:08:46.18 bitrate= 267.2kbits/s dup=1 drop=0 speed=   5x    frame=12674 fps=120 q=32.0 size=   17245kB time=00:08:48.74 bitrate= 267.2kbits/s dup=1 drop=0 speed=5.01x    frame=12732 fps=120 q=32.0 size=   17335kB time=00:08:51.17 bitrate= 267.3kbits/s dup=1 drop=0 speed=   5x    frame=12771 fps=120 q=32.0 size=   17398kB time=00:08:52.84 bitrate= 267.5kbits/s dup=1 drop=0 speed=   5x    frame=12819 fps=120 q=32.0 size=   17503kB time=00:08:54.80 bitrate= 268.1kbits/s dup=1 drop=0 speed=4.99x    frame=12870 fps=120 q=32.0 size=   17607kB time=00:08:56.93 bitrate= 268.6kbits/s dup=1 drop=0 speed=4.99x    frame=12921 fps=119 q=32.0 size=   17710kB time=00:08:59.07 bitrate= 269.1kbits/s dup=1 drop=0 speed=4.98x    frame=12980 fps=119 q=32.0 size=   17826kB time=00:09:01.54 bitrate= 269.7kbits/s dup=1 drop=0 speed=4.98x    frame=13026 fps=119 q=32.0 size=   17965kB time=00:09:03.46 bitrate= 270.8kbits/s dup=1 drop=0 speed=4.98x    frame=13101 fps=119 q=32.0 size=   18030kB time=00:09:06.58 bitrate= 270.2kbits/s dup=1 drop=0 speed=4.98x    frame=13162 fps=119 q=32.0 size=   18121kB time=00:09:09.09 bitrate= 270.3kbits/s dup=1 drop=0 speed=4.98x    frame=13216 fps=119 q=32.0 size=   18186kB time=00:09:11.36 bitrate= 270.2kbits/s dup=1 drop=0 speed=4.98x    frame=13265 fps=119 q=32.0 size=   18271kB time=00:09:13.40 bitrate= 270.5kbits/s dup=1 drop=0 speed=4.97x    frame=13314 fps=119 q=32.0 size=   18348kB time=00:09:15.45 bitrate= 270.6kbits/s dup=1 drop=0 speed=4.97x    frame=13360 fps=119 q=32.0 size=   18399kB time=00:09:17.33 bitrate= 270.4kbits/s dup=1 drop=0 speed=4.96x    frame=13420 fps=119 q=32.0 size=   18498kB time=00:09:19.89 bitrate= 270.6kbits/s dup=1 drop=0 speed=4.96x    frame=13499 fps=119 q=32.0 size=   18582kB time=00:09:23.22 bitrate= 270.3kbits/s dup=1 drop=0 speed=4.97x    frame=13563 fps=119 q=32.0 size=   18678kB time=00:09:25.86 bitrate= 270.4kbits/s dup=1 drop=0 speed=4.97x    frame=13635 fps=119 q=32.0 size=   18729kB time=00:09:28.85 bitrate= 269.7kbits/s dup=1 drop=0 speed=4.98x    frame=13704 fps=119 q=32.0 size=   18818kB time=00:09:31.71 bitrate= 269.6kbits/s dup=1 drop=0 speed=4.98x    frame=13775 fps=119 q=32.0 size=   18914kB time=00:09:34.69 bitrate= 269.6kbits/s dup=1 drop=0 speed=4.98x    frame=13829 fps=119 q=32.0 size=   19001kB time=00:09:36.96 bitrate= 269.8kbits/s dup=1 drop=0 speed=4.98x    frame=13900 fps=120 q=32.0 size=   19089kB time=00:09:39.90 bitrate= 269.7kbits/s dup=1 drop=0 speed=4.99x    frame=13968 fps=120 q=32.0 size=   19138kB time=00:09:42.76 bitrate= 269.0kbits/s dup=1 drop=0 speed=4.99x    frame=14040 fps=120 q=32.0 size=   19228kB time=00:09:45.75 bitrate= 268.9kbits/s dup=1 drop=0 speed=4.99x    frame=14113 fps=120 q=32.0 size=   19296kB time=00:09:48.77 bitrate= 268.5kbits/s dup=1 drop=0 speed=   5x    frame=14190 fps=120 q=32.0 size=   19389kB time=00:09:52.02 bitrate= 268.3kbits/s dup=1 drop=0 speed=   5x    frame=14249 fps=120 q=32.0 size=   19477kB time=00:09:54.45 bitrate= 268.4kbits/s dup=1 drop=0 speed=   5x    frame=14290 fps=120 q=32.0 size=   19557kB time=00:09:56.16 bitrate= 268.7kbits/s dup=1 drop=0 speed=   5x    frame=14343 fps=120 q=32.0 size=   19667kB time=00:09:58.37 bitrate= 269.2kbits/s dup=1 drop=0 speed=4.99x    frame=14419 fps=120 q=32.0 size=   19738kB time=00:10:01.57 bitrate= 268.8kbits/s dup=1 drop=0 speed=   5x    frame=14497 fps=120 q=32.0 size=   19817kB time=00:10:04.77 bitrate= 268.4kbits/s dup=1 drop=0 speed=   5x    frame=14568 fps=120 q=32.0 size=   19876kB time=00:10:07.76 bitrate= 267.9kbits/s dup=1 drop=0 speed=5.01x    frame=14634 fps=120 q=32.0 size=   20043kB time=00:10:10.49 bitrate= 268.9kbits/s dup=1 drop=0 speed=5.01x    frame=14714 fps=120 q=32.0 size=   20144kB time=00:10:13.82 bitrate= 268.8kbits/s dup=1 drop=0 speed=5.02x    frame=14781 fps=120 q=32.0 size=   20259kB time=00:10:16.64 bitrate= 269.1kbits/s dup=1 drop=0 speed=5.02x    frame=14872 fps=121 q=32.0 size=   20372kB time=00:10:20.43 bitrate= 269.0kbits/s dup=1 drop=0 speed=5.03x    frame=14972 fps=121 q=32.0 size=   20469kB time=00:10:24.61 bitrate= 268.5kbits/s dup=1 drop=0 speed=5.04x    frame=15054 fps=121 q=32.0 size=   20566kB time=00:10:28.03 bitrate= 268.3kbits/s dup=1 drop=0 speed=5.05x    frame=15146 fps=121 q=32.0 size=   20690kB time=00:10:31.87 bitrate= 268.2kbits/s dup=1 drop=0 speed=5.06x    frame=15240 fps=122 q=32.0 size=   20771kB time=00:10:35.79 bitrate= 267.6kbits/s dup=1 drop=0 speed=5.07x    frame=15342 fps=122 q=32.0 size=   20873kB time=00:10:40.02 bitrate= 267.2kbits/s dup=1 drop=0 speed=5.08x    frame=15424 fps=122 q=32.0 size=   20955kB time=00:10:43.47 bitrate= 266.8kbits/s dup=1 drop=0 speed=5.09x    frame=15488 fps=122 q=32.0 size=   21026kB time=00:10:46.12 bitrate= 266.6kbits/s dup=1 drop=0 speed=5.09x    frame=15530 fps=122 q=32.0 size=   21092kB time=00:10:47.87 bitrate= 266.7kbits/s dup=1 drop=0 speed=5.08x    frame=15572 fps=122 q=32.0 size=   21175kB time=00:10:49.62 bitrate= 267.0kbits/s dup=1 drop=0 speed=5.08x    frame=15643 fps=122 q=32.0 size=   21280kB time=00:10:52.65 bitrate= 267.1kbits/s dup=1 drop=0 speed=5.08x    frame=15713 fps=122 q=32.0 size=   21385kB time=00:10:55.51 bitrate= 267.3kbits/s dup=1 drop=0 speed=5.08x    frame=15771 fps=122 q=32.0 size=   21483kB time=00:10:57.94 bitrate= 267.5kbits/s dup=1 drop=0 speed=5.08x    frame=15824 fps=122 q=32.0 size=   21563kB time=00:11:00.16 bitrate= 267.6kbits/s dup=1 drop=0 speed=5.08x    frame=15851 fps=121 q=32.0 size=   21643kB time=00:11:01.27 bitrate= 268.1kbits/s dup=1 drop=0 speed=5.07x    frame=15874 fps=121 q=32.0 size=   21716kB time=00:11:02.25 bitrate= 268.6kbits/s dup=1 drop=0 speed=5.05x    frame=15897 fps=121 q=32.0 size=   21789kB time=00:11:03.19 bitrate= 269.1kbits/s dup=1 drop=0 speed=5.04x    frame=15922 fps=121 q=32.0 size=   21865kB time=00:11:04.25 bitrate= 269.7kbits/s dup=1 drop=0 speed=5.03x    frame=15971 fps=120 q=32.0 size=   21982kB time=00:11:06.30 bitrate= 270.3kbits/s dup=1 drop=0 speed=5.03x    frame=16026 fps=120 q=32.0 size=   22081kB time=00:11:08.56 bitrate= 270.6kbits/s dup=1 drop=0 speed=5.02x    frame=16068 fps=120 q=32.0 size=   22164kB time=00:11:10.31 bitrate= 270.9kbits/s dup=1 drop=0 speed=5.02x    frame=16104 fps=120 q=32.0 size=   22239kB time=00:11:11.85 bitrate= 271.2kbits/s dup=1 drop=0 speed=5.01x    frame=16170 fps=120 q=32.0 size=   22353kB time=00:11:14.58 bitrate= 271.5kbits/s dup=1 drop=0 speed=5.01x    frame=16247 fps=120 q=32.0 size=   22440kB time=00:11:17.78 bitrate= 271.2kbits/s dup=1 drop=0 speed=5.02x    frame=16280 fps=120 q=32.0 size=   22590kB time=00:11:19.19 bitrate= 272.5kbits/s dup=1 drop=0 speed=5.01x    frame=16346 fps=120 q=32.0 size=   22691kB time=00:11:21.87 bitrate= 272.6kbits/s dup=1 drop=0 speed=5.01x    frame=16419 fps=120 q=32.0 size=   22790kB time=00:11:24.95 bitrate= 272.6kbits/s dup=1 drop=0 speed=5.01x    frame=16485 fps=120 q=32.0 size=   22888kB time=00:11:27.72 bitrate= 272.6kbits/s dup=1 drop=0 speed=5.01x    frame=16560 fps=120 q=32.0 size=   23031kB time=00:11:30.83 bitrate= 273.1kbits/s dup=1 drop=0 speed=5.02x    frame=16634 fps=120 q=32.0 size=   23109kB time=00:11:33.91 bitrate= 272.8kbits/s dup=1 drop=0 speed=5.02x    frame=16710 fps=120 q=32.0 size=   23226kB time=00:11:37.11 bitrate= 272.9kbits/s dup=1 drop=0 speed=5.02x    frame=16788 fps=121 q=32.0 size=   23380kB time=00:11:40.35 bitrate= 273.5kbits/s dup=1 drop=0 speed=5.03x    frame=16861 fps=121 q=32.0 size=   23516kB time=00:11:43.38 bitrate= 273.9kbits/s dup=1 drop=0 speed=5.03x    frame=16932 fps=121 q=32.0 size=   23638kB time=00:11:46.41 bitrate= 274.1kbits/s dup=1 drop=0 speed=5.04x    frame=16999 fps=121 q=32.0 size=   23763kB time=00:11:49.14 bitrate= 274.5kbits/s dup=1 drop=0 speed=5.04x    frame=17075 fps=121 q=32.0 size=   23876kB time=00:11:52.29 bitrate= 274.6kbits/s dup=1 drop=0 speed=5.04x    frame=17133 fps=121 q=32.0 size=   24043kB time=00:11:54.73 bitrate= 275.6kbits/s dup=1 drop=0 speed=5.04x    frame=17203 fps=121 q=32.0 size=   24139kB time=00:11:57.67 bitrate= 275.5kbits/s dup=1 drop=0 speed=5.04x    frame=17282 fps=121 q=32.0 size=   24284kB time=00:12:00.96 bitrate= 275.9kbits/s dup=1 drop=0 speed=5.05x    frame=17363 fps=121 q=32.0 size=   24379kB time=00:12:04.33 bitrate= 275.7kbits/s dup=1 drop=0 speed=5.05x    frame=17431 fps=121 q=32.0 size=   24543kB time=00:12:07.19 bitrate= 276.5kbits/s dup=1 drop=0 speed=5.06x    frame=17500 fps=121 q=32.0 size=   24640kB time=00:12:10.04 bitrate= 276.5kbits/s dup=1 drop=0 speed=5.06x    frame=17576 fps=121 q=32.0 size=   24748kB time=00:12:13.20 bitrate= 276.5kbits/s dup=1 drop=0 speed=5.06x    frame=17664 fps=122 q=32.0 size=   24853kB time=00:12:16.87 bitrate= 276.3kbits/s dup=1 drop=0 speed=5.07x    frame=17744 fps=122 q=32.0 size=   24926kB time=00:12:20.24 bitrate= 275.8kbits/s dup=1 drop=0 speed=5.08x    frame=17800 fps=122 q=32.0 size=   25008kB time=00:12:22.55 bitrate= 275.9kbits/s dup=1 drop=0 speed=5.07x    frame=17863 fps=122 q=32.0 size=   25146kB time=00:12:25.19 bitrate= 276.4kbits/s dup=1 drop=0 speed=5.08x    frame=17951 fps=122 q=32.0 size=   25282kB time=00:12:28.86 bitrate= 276.6kbits/s dup=1 drop=0 speed=5.08x    frame=18052 fps=122 q=32.0 size=   25365kB time=00:12:33.08 bitrate= 275.9kbits/s dup=1 drop=0 speed=5.09x    frame=18127 fps=122 q=32.0 size=   25465kB time=00:12:36.20 bitrate= 275.9kbits/s dup=1 drop=0 speed= 5.1x    frame=18191 fps=122 q=32.0 size=   25531kB time=00:12:38.89 bitrate= 275.6kbits/s dup=1 drop=0 speed= 5.1x    frame=18239 fps=122 q=32.0 size=   25616kB time=00:12:40.85 bitrate= 275.8kbits/s dup=1 drop=0 speed=5.09x    frame=18304 fps=122 q=32.0 size=   25718kB time=00:12:43.58 bitrate= 275.9kbits/s dup=1 drop=0 speed=5.09x    frame=18382 fps=122 q=32.0 size=   25838kB time=00:12:46.82 bitrate= 276.0kbits/s dup=1 drop=0 speed= 5.1x    frame=18456 fps=122 q=32.0 size=   25901kB time=00:12:49.89 bitrate= 275.6kbits/s dup=1 drop=0 speed= 5.1x    frame=18516 fps=122 q=32.0 size=   25974kB time=00:12:52.41 bitrate= 275.5kbits/s dup=1 drop=0 speed= 5.1x    frame=18562 fps=122 q=32.0 size=   26050kB time=00:12:54.37 bitrate= 275.6kbits/s dup=1 drop=0 speed= 5.1x    frame=18615 fps=122 q=32.0 size=   26181kB time=00:12:56.55 bitrate= 276.2kbits/s dup=1 drop=0 speed=5.09x    frame=18695 fps=122 q=32.0 size=   26272kB time=00:12:59.88 bitrate= 276.0kbits/s dup=1 drop=0 speed= 5.1x    frame=18760 fps=122 q=32.0 size=   26374kB time=00:13:02.61 bitrate= 276.1kbits/s dup=1 drop=0 speed= 5.1x    frame=18831 fps=122 q=32.0 size=   26469kB time=00:13:05.55 bitrate= 276.0kbits/s dup=1 drop=0 speed= 5.1x    frame=18920 fps=122 q=32.0 size=   26572kB time=00:13:09.27 bitrate= 275.8kbits/s dup=1 drop=0 speed=5.11x    frame=19015 fps=123 q=32.0 size=   26678kB time=00:13:13.23 bitrate= 275.5kbits/s dup=1 drop=0 speed=5.12x    frame=19139 fps=123 q=32.0 size=   26754kB time=00:13:18.40 bitrate= 274.5kbits/s dup=1 drop=0 speed=5.13x    frame=19239 fps=123 q=32.0 size=   26855kB time=00:13:22.58 bitrate= 274.1kbits/s dup=1 drop=0 speed=5.14x    frame=19303 fps=123 q=32.0 size=   26957kB time=00:13:25.22 bitrate= 274.2kbits/s dup=1 drop=0 speed=5.14x    frame=19354 fps=123 q=32.0 size=   27027kB time=00:13:27.40 bitrate= 274.2kbits/s dup=1 drop=0 speed=5.14x    frame=19419 fps=123 q=32.0 size=   27110kB time=00:13:30.09 bitrate= 274.1kbits/s dup=1 drop=0 speed=5.14x    frame=19505 fps=123 q=32.0 size=   27185kB time=00:13:33.67 bitrate= 273.7kbits/s dup=1 drop=0 speed=5.15x    frame=19583 fps=124 q=32.0 size=   27257kB time=00:13:36.91 bitrate= 273.3kbits/s dup=1 drop=0 speed=5.15x    frame=19653 fps=124 q=32.0 size=   27337kB time=00:13:39.86 bitrate= 273.1kbits/s dup=1 drop=0 speed=5.15x    frame=19707 fps=124 q=32.0 size=   27412kB time=00:13:42.08 bitrate= 273.2kbits/s dup=1 drop=0 speed=5.15x    frame=19750 fps=123 q=32.0 size=   27474kB time=00:13:43.91 bitrate= 273.2kbits/s dup=1 drop=0 speed=5.15x    frame=19807 fps=123 q=32.0 size=   27608kB time=00:13:46.26 bitrate= 273.7kbits/s dup=1 drop=0 speed=5.15x    frame=19873 fps=123 q=32.0 size=   27718kB time=00:13:49.03 bitrate= 273.9kbits/s dup=1 drop=0 speed=5.15x    frame=19940 fps=123 q=32.0 size=   27799kB time=00:13:51.80 bitrate= 273.8kbits/s dup=1 drop=0 speed=5.15x    frame=20027 fps=124 q=32.0 size=   27910kB time=00:13:55.47 bitrate= 273.7kbits/s dup=1 drop=0 speed=5.15x    frame=20101 fps=124 q=32.0 size=   28011kB time=00:13:58.55 bitrate= 273.6kbits/s dup=1 drop=0 speed=5.16x    frame=20187 fps=124 q=32.0 size=   28089kB time=00:14:02.13 bitrate= 273.2kbits/s dup=1 drop=0 speed=5.16x    frame=20256 fps=124 q=32.0 size=   28197kB time=00:14:04.99 bitrate= 273.4kbits/s dup=1 drop=0 speed=5.16x    frame=20342 fps=124 q=32.0 size=   28286kB time=00:14:08.57 bitrate= 273.1kbits/s dup=1 drop=0 speed=5.17x    frame=20426 fps=124 q=32.0 size=   28357kB time=00:14:12.07 bitrate= 272.6kbits/s dup=1 drop=0 speed=5.17x    frame=20494 fps=124 q=32.0 size=   28427kB time=00:14:14.93 bitrate= 272.4kbits/s dup=1 drop=0 speed=5.18x    frame=20551 fps=124 q=32.0 size=   28502kB time=00:14:17.32 bitrate= 272.3kbits/s dup=1 drop=0 speed=5.17x    frame=20599 fps=124 q=32.0 size=   28564kB time=00:14:19.32 bitrate= 272.3kbits/s dup=1 drop=0 speed=5.17x    frame=20654 fps=124 q=32.0 size=   28621kB time=00:14:21.59 bitrate= 272.1kbits/s dup=1 drop=0 speed=5.17x    frame=20721 fps=124 q=32.0 size=   28711kB time=00:14:24.40 bitrate= 272.1kbits/s dup=1 drop=0 speed=5.17x    frame=20789 fps=124 q=32.0 size=   28800kB time=00:14:27.22 bitrate= 272.1kbits/s dup=1 drop=0 speed=5.17x    frame=20848 fps=124 q=32.0 size=   28876kB time=00:14:29.65 bitrate= 272.0kbits/s dup=1 drop=0 speed=5.17x    frame=20924 fps=124 q=32.0 size=   28969kB time=00:14:32.85 bitrate= 271.9kbits/s dup=1 drop=0 speed=5.17x    frame=20978 fps=124 q=32.0 size=   29066kB time=00:14:35.11 bitrate= 272.1kbits/s dup=1 drop=0 speed=5.17x    frame=21026 fps=124 q=32.0 size=   29160kB time=00:14:37.12 bitrate= 272.3kbits/s dup=1 drop=0 speed=5.17x    frame=21064 fps=124 q=32.0 size=   29233kB time=00:14:38.69 bitrate= 272.5kbits/s dup=1 drop=0 speed=5.16x    frame=21129 fps=124 q=32.0 size=   29328kB time=00:14:41.43 bitrate= 272.6kbits/s dup=1 drop=0 speed=5.16x    frame=21203 fps=124 q=32.0 size=   29449kB time=00:14:44.50 bitrate= 272.7kbits/s dup=1 drop=0 speed=5.16x    frame=21267 fps=124 q=32.0 size=   29567kB time=00:14:47.14 bitrate= 273.0kbits/s dup=1 drop=0 speed=5.16x    frame=21361 fps=124 q=32.0 size=   29679kB time=00:14:51.11 bitrate= 272.8kbits/s dup=1 drop=0 speed=5.17x    frame=21445 fps=124 q=29.0 size=   29801kB time=00:14:54.61 bitrate= 272.9kbits/s dup=1 drop=0 speed=5.18x    frame=21527 fps=124 q=29.0 size=   29917kB time=00:14:57.98 bitrate= 272.9kbits/s dup=1 drop=0 speed=5.18x    frame=21629 fps=124 q=32.0 size=   30037kB time=00:15:02.29 bitrate= 272.7kbits/s dup=1 drop=0 speed=5.19x    frame=21707 fps=125 q=32.0 size=   30140kB time=00:15:05.53 bitrate= 272.7kbits/s dup=1 drop=0 speed= 5.2x    frame=21783 fps=125 q=32.0 size=   30216kB time=00:15:08.69 bitrate= 272.4kbits/s dup=1 drop=0 speed= 5.2x    frame=21834 fps=125 q=32.0 size=   30309kB time=00:15:10.82 bitrate= 272.6kbits/s dup=1 drop=0 speed= 5.2x    frame=21904 fps=125 q=32.0 size=   30439kB time=00:15:13.72 bitrate= 272.9kbits/s dup=1 drop=0 speed= 5.2x    frame=21985 fps=125 q=32.0 size=   30529kB time=00:15:17.09 bitrate= 272.7kbits/s dup=1 drop=0 speed= 5.2x    frame=22066 fps=125 q=32.0 size=   30609kB time=00:15:20.51 bitrate= 272.4kbits/s dup=1 drop=0 speed=5.21x    frame=22160 fps=125 q=32.0 size=   30712kB time=00:15:24.39 bitrate= 272.2kbits/s dup=1 drop=0 speed=5.21x    frame=22264 fps=125 q=32.0 size=   30768kB time=00:15:28.74 bitrate= 271.4kbits/s dup=1 drop=0 speed=5.22x    frame=22335 fps=125 q=32.0 size=   30881kB time=00:15:31.69 bitrate= 271.5kbits/s dup=1 drop=0 speed=5.22x    frame=22414 fps=125 q=32.0 size=   30999kB time=00:15:35.01 bitrate= 271.6kbits/s dup=1 drop=0 speed=5.23x    frame=22506 fps=125 q=32.0 size=   31100kB time=00:15:38.85 bitrate= 271.4kbits/s dup=1 drop=0 speed=5.23x    frame=22582 fps=126 q=32.0 size=   31195kB time=00:15:42.01 bitrate= 271.3kbits/s dup=1 drop=0 speed=5.24x    frame=22679 fps=126 q=32.0 size=   31290kB time=00:15:46.07 bitrate= 270.9kbits/s dup=1 drop=0 speed=5.24x    frame=22787 fps=126 q=32.0 size=   31410kB time=00:15:50.55 bitrate= 270.7kbits/s dup=1 drop=0 speed=5.26x    frame=22888 fps=126 q=32.0 size=   31526kB time=00:15:54.77 bitrate= 270.5kbits/s dup=1 drop=0 speed=5.26x    frame=22956 fps=126 q=32.0 size=   31646kB time=00:15:57.63 bitrate= 270.7kbits/s dup=1 drop=0 speed=5.26x    frame=23053 fps=126 q=32.0 size=   31756kB time=00:16:01.64 bitrate= 270.5kbits/s dup=1 drop=0 speed=5.27x    frame=23127 fps=126 q=32.0 size=   31837kB time=00:16:04.75 bitrate= 270.3kbits/s dup=1 drop=0 speed=5.27x    frame=23202 fps=127 q=32.0 size=   31923kB time=00:16:07.87 bitrate= 270.2kbits/s dup=1 drop=0 speed=5.28x    frame=23271 fps=127 q=32.0 size=   31989kB time=00:16:10.73 bitrate= 270.0kbits/s dup=1 drop=0 speed=5.28x    frame=23342 fps=127 q=32.0 size=   32047kB time=00:16:13.71 bitrate= 269.6kbits/s dup=1 drop=0 speed=5.28x    frame=23440 fps=127 q=32.0 size=   32158kB time=00:16:17.81 bitrate= 269.4kbits/s dup=1 drop=0 speed=5.29x    frame=23523 fps=127 q=32.0 size=   32246kB time=00:16:21.27 bitrate= 269.2kbits/s dup=1 drop=0 speed=5.29x    frame=23595 fps=127 q=32.0 size=   32329kB time=00:16:24.25 bitrate= 269.1kbits/s dup=1 drop=0 speed=5.29x    frame=23647 fps=127 q=32.0 size=   32413kB time=00:16:26.43 bitrate= 269.2kbits/s dup=1 drop=0 speed=5.29x    frame=23715 fps=127 q=32.0 size=   32539kB time=00:16:29.29 bitrate= 269.4kbits/s dup=1 drop=0 speed=5.29x    frame=23787 fps=127 q=32.0 size=   32643kB time=00:16:32.27 bitrate= 269.5kbits/s dup=1 drop=0 speed=5.29x    frame=23876 fps=127 q=32.0 size=   32771kB time=00:16:35.99 bitrate= 269.5kbits/s dup=1 drop=0 speed= 5.3x    frame=23972 fps=127 q=32.0 size=   32879kB time=00:16:40.00 bitrate= 269.3kbits/s dup=1 drop=0 speed= 5.3x    frame=24077 fps=127 q=32.0 size=   32995kB time=00:16:44.35 bitrate= 269.1kbits/s dup=1 drop=0 speed=5.31x    frame=24167 fps=127 q=32.0 size=   33078kB time=00:16:48.10 bitrate= 268.8kbits/s dup=1 drop=0 speed=5.32x    frame=24268 fps=128 q=32.0 size=   33162kB time=00:16:52.33 bitrate= 268.4kbits/s dup=1 drop=0 speed=5.33x    frame=24385 fps=128 q=32.0 size=   33231kB time=00:16:57.19 bitrate= 267.6kbits/s dup=1 drop=0 speed=5.34x    frame=24461 fps=128 q=32.0 size=   33323kB time=00:17:00.39 bitrate= 267.5kbits/s dup=1 drop=0 speed=5.34x    frame=24567 fps=128 q=32.0 size=   33408kB time=00:17:04.79 bitrate= 267.1kbits/s dup=1 drop=0 speed=5.35x    frame=24689 fps=129 q=32.0 size=   33485kB time=00:17:09.86 bitrate= 266.4kbits/s dup=1 drop=0 speed=5.36x    frame=24794 fps=129 q=32.0 size=   33589kB time=00:17:14.26 bitrate= 266.0kbits/s dup=1 drop=0 speed=5.37x    frame=24873 fps=129 q=32.0 size=   33673kB time=00:17:17.54 bitrate= 265.9kbits/s dup=1 drop=0 speed=5.37x    frame=24948 fps=129 q=32.0 size=   33739kB time=00:17:20.70 bitrate= 265.6kbits/s dup=1 drop=0 speed=5.38x    frame=25041 fps=129 q=32.0 size=   33825kB time=00:17:24.58 bitrate= 265.3kbits/s dup=1 drop=0 speed=5.38x    frame=25101 fps=129 q=32.0 size=   33913kB time=00:17:27.06 bitrate= 265.3kbits/s dup=1 drop=0 speed=5.38x    frame=25195 fps=129 q=32.0 size=   34016kB time=00:17:30.98 bitrate= 265.1kbits/s dup=1 drop=0 speed=5.39x    frame=25305 fps=129 q=32.0 size=   34125kB time=00:17:35.59 bitrate= 264.8kbits/s dup=1 drop=0 speed= 5.4x    frame=25409 fps=130 q=32.0 size=   34208kB time=00:17:39.94 bitrate= 264.4kbits/s dup=1 drop=0 speed= 5.4x    frame=25518 fps=130 q=32.0 size=   34302kB time=00:17:44.47 bitrate= 264.0kbits/s dup=1 drop=0 speed=5.41x    frame=25617 fps=130 q=32.0 size=   34436kB time=00:17:48.60 bitrate= 264.0kbits/s dup=1 drop=0 speed=5.42x    frame=25717 fps=130 q=32.0 size=   34501kB time=00:17:52.79 bitrate= 263.5kbits/s dup=1 drop=0 speed=5.43x    frame=25799 fps=130 q=32.0 size=   34584kB time=00:17:56.20 bitrate= 263.3kbits/s dup=1 drop=0 speed=5.43x    frame=25886 fps=130 q=32.0 size=   34687kB time=00:17:59.83 bitrate= 263.1kbits/s dup=1 drop=0 speed=5.44x    frame=25966 fps=130 q=32.0 size=   34759kB time=00:18:03.15 bitrate= 262.9kbits/s dup=1 drop=0 speed=5.44x    frame=26069 fps=131 q=32.0 size=   34855kB time=00:18:07.46 bitrate= 262.6kbits/s dup=1 drop=0 speed=5.45x    frame=26166 fps=131 q=32.0 size=   34937kB time=00:18:11.47 bitrate= 262.2kbits/s dup=1 drop=0 speed=5.45x    frame=26229 fps=131 q=32.0 size=   35005kB time=00:18:14.12 bitrate= 262.1kbits/s dup=1 drop=0 speed=5.45x    frame=26263 fps=131 q=32.0 size=   35100kB time=00:18:15.53 bitrate= 262.5kbits/s dup=1 drop=0 speed=5.45x    frame=26309 fps=130 q=32.0 size=   35211kB time=00:18:17.45 bitrate= 262.8kbits/s dup=1 drop=0 speed=5.44x    frame=26353 fps=130 q=32.0 size=   35298kB time=00:18:19.28 bitrate= 263.0kbits/s dup=1 drop=0 speed=5.44x    frame=26436 fps=130 q=32.0 size=   35363kB time=00:18:22.74 bitrate= 262.7kbits/s dup=1 drop=0 speed=5.44x    frame=26516 fps=130 q=32.0 size=   35430kB time=00:18:26.07 bitrate= 262.4kbits/s dup=1 drop=0 speed=5.44x    frame=26603 fps=131 q=32.0 size=   35513kB time=00:18:29.73 bitrate= 262.2kbits/s dup=1 drop=0 speed=5.45x    frame=26708 fps=131 q=32.0 size=   35607kB time=00:18:34.09 bitrate= 261.8kbits/s dup=1 drop=0 speed=5.45x    frame=26829 fps=131 q=32.0 size=   35695kB time=00:18:39.12 bitrate= 261.3kbits/s dup=1 drop=0 speed=5.47x    frame=26928 fps=131 q=32.0 size=   35769kB time=00:18:43.26 bitrate= 260.9kbits/s dup=1 drop=0 speed=5.47x    frame=27049 fps=131 q=32.0 size=   35864kB time=00:18:48.34 bitrate= 260.4kbits/s dup=1 drop=0 speed=5.48x    frame=27156 fps=132 q=32.0 size=   35988kB time=00:18:52.77 bitrate= 260.3kbits/s dup=1 drop=0 speed=5.49x    frame=27249 fps=132 q=32.0 size=   36061kB time=00:18:56.66 bitrate= 259.9kbits/s dup=1 drop=0 speed= 5.5x    frame=27345 fps=132 q=32.0 size=   36175kB time=00:19:00.67 bitrate= 259.8kbits/s dup=1 drop=0 speed= 5.5x    frame=27437 fps=132 q=32.0 size=   36256kB time=00:19:04.55 bitrate= 259.5kbits/s dup=1 drop=0 speed=5.51x    frame=27531 fps=132 q=32.0 size=   36345kB time=00:19:08.43 bitrate= 259.3kbits/s dup=1 drop=0 speed=5.51x    frame=27631 fps=132 q=32.0 size=   36414kB time=00:19:12.61 bitrate= 258.8kbits/s dup=1 drop=0 speed=5.52x    frame=27714 fps=132 q=32.0 size=   36504kB time=00:19:16.07 bitrate= 258.7kbits/s dup=1 drop=0 speed=5.52x    frame=27810 fps=133 q=29.0 size=   36577kB time=00:19:20.04 bitrate= 258.3kbits/s dup=1 drop=0 speed=5.53x    frame=27876 fps=133 q=32.0 size=   36682kB time=00:19:22.81 bitrate= 258.4kbits/s dup=1 drop=0 speed=5.53x    frame=27963 fps=133 q=32.0 size=   36737kB time=00:19:26.44 bitrate= 258.0kbits/s dup=1 drop=0 speed=5.53x    frame=28047 fps=133 q=32.0 size=   36800kB time=00:19:29.94 bitrate= 257.7kbits/s dup=1 drop=0 speed=5.54x    frame=28109 fps=133 q=32.0 size=   36887kB time=00:19:32.58 bitrate= 257.7kbits/s dup=1 drop=0 speed=5.54x    frame=28174 fps=133 q=32.0 size=   36963kB time=00:19:35.27 bitrate= 257.6kbits/s dup=1 drop=0 speed=5.54x    frame=28237 fps=133 q=32.0 size=   37029kB time=00:19:37.87 bitrate= 257.5kbits/s dup=1 drop=0 speed=5.53x    frame=28291 fps=133 q=32.0 size=   37113kB time=00:19:40.13 bitrate= 257.6kbits/s dup=1 drop=0 speed=5.53x    frame=28350 fps=133 q=32.0 size=   37190kB time=00:19:42.61 bitrate= 257.6kbits/s dup=1 drop=0 speed=5.53x    frame=28424 fps=133 q=32.0 size=   37278kB time=00:19:45.68 bitrate= 257.6kbits/s dup=1 drop=0 speed=5.53x    frame=28511 fps=133 q=32.0 size=   37360kB time=00:19:49.31 bitrate= 257.3kbits/s dup=1 drop=0 speed=5.54x    frame=28603 fps=133 q=32.0 size=   37445kB time=00:19:53.15 bitrate= 257.1kbits/s dup=1 drop=0 speed=5.54x    frame=28676 fps=133 q=32.0 size=   37539kB time=00:19:56.22 bitrate= 257.1kbits/s dup=1 drop=0 speed=5.54x    frame=28745 fps=133 q=32.0 size=   37619kB time=00:19:59.08 bitrate= 257.0kbits/s dup=1 drop=0 speed=5.54x    frame=28798 fps=133 q=32.0 size=   37715kB time=00:20:01.25 bitrate= 257.2kbits/s dup=1 drop=0 speed=5.54x    frame=28879 fps=133 q=32.0 size=   37827kB time=00:20:04.63 bitrate= 257.2kbits/s dup=1 drop=0 speed=5.54x    frame=28979 fps=133 q=32.0 size=   37922kB time=00:20:08.81 bitrate= 257.0kbits/s dup=1 drop=0 speed=5.55x    frame=29075 fps=133 q=32.0 size=   37993kB time=00:20:12.82 bitrate= 256.6kbits/s dup=1 drop=0 speed=5.55x    frame=29166 fps=133 q=32.0 size=   38109kB time=00:20:16.61 bitrate= 256.6kbits/s dup=1 drop=0 speed=5.56x    frame=29251 fps=133 q=32.0 size=   38196kB time=00:20:20.16 bitrate= 256.4kbits/s dup=1 drop=0 speed=5.56x    frame=29337 fps=133 q=32.0 size=   38308kB time=00:20:23.74 bitrate= 256.4kbits/s dup=1 drop=0 speed=5.57x    frame=29412 fps=133 q=32.0 size=   38441kB time=00:20:26.85 bitrate= 256.7kbits/s dup=1 drop=0 speed=5.57x    frame=29448 fps=133 q=29.0 size=   38580kB time=00:20:28.39 bitrate= 257.3kbits/s dup=1 drop=0 speed=5.56x    frame=29494 fps=133 q=32.0 size=   38744kB time=00:20:30.31 bitrate= 258.0kbits/s dup=1 drop=0 speed=5.55x    frame=29530 fps=133 q=32.0 size=   38879kB time=00:20:31.80 bitrate= 258.6kbits/s dup=1 drop=0 speed=5.55x    frame=29560 fps=133 q=32.0 size=   39003kB time=00:20:33.04 bitrate= 259.1kbits/s dup=1 drop=0 speed=5.54x    frame=29604 fps=133 q=32.0 size=   39105kB time=00:20:34.88 bitrate= 259.4kbits/s dup=1 drop=0 speed=5.54x    frame=29681 fps=133 q=32.0 size=   39234kB time=00:20:38.12 bitrate= 259.6kbits/s dup=1 drop=0 speed=5.54x    frame=29776 fps=133 q=32.0 size=   39331kB time=00:20:42.09 bitrate= 259.4kbits/s dup=1 drop=0 speed=5.54x    frame=29881 fps=133 q=32.0 size=   39419kB time=00:20:46.44 bitrate= 259.1kbits/s dup=1 drop=0 speed=5.55x    frame=29938 fps=133 q=29.0 size=   39505kB time=00:20:48.83 bitrate= 259.1kbits/s dup=1 drop=0 speed=5.55x    frame=30005 fps=133 q=32.0 size=   39624kB time=00:20:51.60 bitrate= 259.3kbits/s dup=1 drop=0 speed=5.55x    frame=30050 fps=133 q=32.0 size=   39713kB time=00:20:53.48 bitrate= 259.5kbits/s dup=1 drop=0 speed=5.54x    frame=30079 fps=133 q=32.0 size=   39838kB time=00:20:54.67 bitrate= 260.1kbits/s dup=1 drop=0 speed=5.54x    frame=30134 fps=133 q=32.0 size=   39965kB time=00:20:56.98 bitrate= 260.5kbits/s dup=1 drop=0 speed=5.53x    frame=30194 fps=133 q=32.0 size=   40086kB time=00:20:59.49 bitrate= 260.7kbits/s dup=1 drop=0 speed=5.53x    frame=30265 fps=133 q=32.0 size=   40195kB time=00:21:02.48 bitrate= 260.8kbits/s dup=1 drop=0 speed=5.53x    frame=30337 fps=133 q=32.0 size=   40313kB time=00:21:05.47 bitrate= 261.0kbits/s dup=1 drop=0 speed=5.53x    frame=30411 fps=133 q=32.0 size=   40415kB time=00:21:08.54 bitrate= 261.0kbits/s dup=1 drop=0 speed=5.54x    frame=30470 fps=133 q=32.0 size=   40521kB time=00:21:11.01 bitrate= 261.2kbits/s dup=1 drop=0 speed=5.53x    frame=30506 fps=133 q=32.0 size=   40641kB time=00:21:12.51 bitrate= 261.6kbits/s dup=1 drop=0 speed=5.53x    frame=30540 fps=132 q=32.0 size=   40755kB time=00:21:13.92 bitrate= 262.1kbits/s dup=1 drop=0 speed=5.52x    frame=30582 fps=132 q=32.0 size=   40913kB time=00:21:15.67 bitrate= 262.7kbits/s dup=1 drop=0 speed=5.52x    frame=30613 fps=132 q=32.0 size=   41044kB time=00:21:16.95 bitrate= 263.3kbits/s dup=1 drop=0 speed=5.51x    frame=30643 fps=132 q=32.0 size=   41161kB time=00:21:18.23 bitrate= 263.8kbits/s dup=1 drop=0 speed= 5.5x    frame=30694 fps=132 q=32.0 size=   41298kB time=00:21:20.36 bitrate= 264.2kbits/s dup=1 drop=0 speed= 5.5x    frame=30746 fps=132 q=32.0 size=   41397kB time=00:21:22.49 bitrate= 264.4kbits/s dup=1 drop=0 speed= 5.5x    frame=30785 fps=132 q=32.0 size=   41493kB time=00:21:24.16 bitrate= 264.7kbits/s dup=1 drop=0 speed=5.49x    frame=30828 fps=132 q=32.0 size=   41624kB time=00:21:25.95 bitrate= 265.2kbits/s dup=1 drop=0 speed=5.49x    frame=30874 fps=132 q=32.0 size=   41684kB time=00:21:27.87 bitrate= 265.1kbits/s dup=1 drop=0 speed=5.49x    frame=30926 fps=131 q=32.0 size=   41794kB time=00:21:30.00 bitrate= 265.4kbits/s dup=1 drop=0 speed=5.48x    frame=30989 fps=131 q=32.0 size=   41874kB time=00:21:32.65 bitrate= 265.4kbits/s dup=1 drop=0 speed=5.48x    frame=31048 fps=131 q=32.0 size=   41985kB time=00:21:35.12 bitrate= 265.6kbits/s dup=1 drop=0 speed=5.48x    frame=31077 fps=131 q=32.0 size=   42075kB time=00:21:36.32 bitrate= 265.9kbits/s dup=1 drop=0 speed=5.47x    frame=31125 fps=131 q=32.0 size=   42221kB time=00:21:38.32 bitrate= 266.4kbits/s dup=1 drop=0 speed=5.47x    frame=31195 fps=131 q=32.0 size=   42322kB time=00:21:41.27 bitrate= 266.4kbits/s dup=1 drop=0 speed=5.47x    frame=31254 fps=131 q=32.0 size=   42412kB time=00:21:43.70 bitrate= 266.5kbits/s dup=1 drop=0 speed=5.47x    frame=31310 fps=131 q=32.0 size=   42483kB time=00:21:46.04 bitrate= 266.5kbits/s dup=1 drop=0 speed=5.47x    frame=31359 fps=131 q=32.0 size=   42607kB time=00:21:48.09 bitrate= 266.8kbits/s dup=1 drop=0 speed=5.47x    frame=31423 fps=131 q=32.0 size=   42689kB time=00:21:50.74 bitrate= 266.8kbits/s dup=1 drop=0 speed=5.47x    frame=31480 fps=131 q=32.0 size=   42796kB time=00:21:53.13 bitrate= 267.0kbits/s dup=1 drop=0 speed=5.46x    frame=31548 fps=131 q=32.0 size=   42901kB time=00:21:55.94 bitrate= 267.1kbits/s dup=1 drop=0 speed=5.46x    frame=31608 fps=131 q=32.0 size=   42999kB time=00:21:58.50 bitrate= 267.2kbits/s dup=1 drop=0 speed=5.46x    frame=31675 fps=131 q=32.0 size=   43105kB time=00:22:01.28 bitrate= 267.3kbits/s dup=1 drop=0 speed=5.46x    frame=31736 fps=131 q=32.0 size=   43179kB time=00:22:03.79 bitrate= 267.2kbits/s dup=1 drop=0 speed=5.46x    frame=31796 fps=131 q=32.0 size=   43265kB time=00:22:06.31 bitrate= 267.2kbits/s dup=1 drop=0 speed=5.46x    frame=31850 fps=131 q=32.0 size=   43353kB time=00:22:08.57 bitrate= 267.3kbits/s dup=1 drop=0 speed=5.46x    frame=31893 fps=131 q=32.0 size=   43436kB time=00:22:10.41 bitrate= 267.5kbits/s dup=1 drop=0 speed=5.46x    frame=31932 fps=131 q=32.0 size=   43526kB time=00:22:11.99 bitrate= 267.7kbits/s dup=1 drop=0 speed=5.45x    frame=31968 fps=131 q=32.0 size=   43612kB time=00:22:13.48 bitrate= 267.9kbits/s dup=1 drop=0 speed=5.45x    frame=32006 fps=130 q=32.0 size=   43699kB time=00:22:15.06 bitrate= 268.1kbits/s dup=1 drop=0 speed=5.44x    frame=32046 fps=130 q=32.0 size=   43816kB time=00:22:16.76 bitrate= 268.5kbits/s dup=1 drop=0 speed=5.44x    frame=32089 fps=130 q=32.0 size=   43896kB time=00:22:18.51 bitrate= 268.7kbits/s dup=1 drop=0 speed=5.43x    frame=32140 fps=130 q=32.0 size=   43987kB time=00:22:20.65 bitrate= 268.8kbits/s dup=1 drop=0 speed=5.43x    frame=32215 fps=130 q=32.0 size=   44101kB time=00:22:23.76 bitrate= 268.9kbits/s dup=1 drop=0 speed=5.43x    frame=32256 fps=130 q=32.0 size=   44187kB time=00:22:25.51 bitrate= 269.0kbits/s dup=1 drop=0 speed=5.43x    frame=32304 fps=130 q=32.0 size=   44295kB time=00:22:27.47 bitrate= 269.3kbits/s dup=1 drop=0 speed=5.42x    frame=32357 fps=130 q=32.0 size=   44383kB time=00:22:29.69 bitrate= 269.4kbits/s dup=1 drop=0 speed=5.42x    frame=32418 fps=130 q=32.0 size=   44515kB time=00:22:32.25 bitrate= 269.7kbits/s dup=1 drop=0 speed=5.42x    frame=32489 fps=130 q=32.0 size=   44609kB time=00:22:35.24 bitrate= 269.6kbits/s dup=1 drop=0 speed=5.42x    frame=32549 fps=130 q=32.0 size=   44711kB time=00:22:37.71 bitrate= 269.8kbits/s dup=1 drop=0 speed=5.42x    frame=32606 fps=130 q=32.0 size=   44838kB time=00:22:40.10 bitrate= 270.1kbits/s dup=1 drop=0 speed=5.42x    frame=32670 fps=130 q=32.0 size=   44938kB time=00:22:42.75 bitrate= 270.1kbits/s dup=1 drop=0 speed=5.42x    frame=32722 fps=130 q=32.0 size=   45044kB time=00:22:44.97 bitrate= 270.3kbits/s dup=1 drop=0 speed=5.42x    frame=32779 fps=130 q=32.0 size=   45142kB time=00:22:47.31 bitrate= 270.5kbits/s dup=1 drop=0 speed=5.41x    frame=32837 fps=130 q=32.0 size=   45253kB time=00:22:49.70 bitrate= 270.6kbits/s dup=1 drop=0 speed=5.41x    frame=32902 fps=130 q=32.0 size=   45365kB time=00:22:52.43 bitrate= 270.8kbits/s dup=1 drop=0 speed=5.41x    frame=32945 fps=130 q=32.0 size=   45458kB time=00:22:54.23 bitrate= 271.0kbits/s dup=1 drop=0 speed=5.41x    frame=32990 fps=130 q=32.0 size=   45562kB time=00:22:56.10 bitrate= 271.2kbits/s dup=1 drop=0 speed=5.41x    frame=33030 fps=129 q=32.0 size=   45712kB time=00:22:57.77 bitrate= 271.8kbits/s dup=1 drop=0 speed= 5.4x    frame=33085 fps=129 q=32.0 size=   45810kB time=00:23:00.07 bitrate= 271.9kbits/s dup=1 drop=0 speed= 5.4x    frame=33134 fps=129 q=32.0 size=   45903kB time=00:23:02.12 bitrate= 272.1kbits/s dup=1 drop=0 speed= 5.4x    frame=33184 fps=129 q=32.0 size=   45997kB time=00:23:04.21 bitrate= 272.2kbits/s dup=1 drop=0 speed=5.39x    frame=33228 fps=129 q=32.0 size=   46135kB time=00:23:06.09 bitrate= 272.7kbits/s dup=1 drop=0 speed=5.39x    frame=33264 fps=129 q=32.0 size=   46239kB time=00:23:07.54 bitrate= 273.0kbits/s dup=1 drop=0 speed=5.38x    frame=33300 fps=129 q=32.0 size=   46359kB time=00:23:09.03 bitrate= 273.4kbits/s dup=1 drop=0 speed=5.38x    frame=33348 fps=129 q=32.0 size=   46455kB time=00:23:11.04 bitrate= 273.6kbits/s dup=1 drop=0 speed=5.38x    frame=33423 fps=129 q=32.0 size=   46559kB time=00:23:14.19 bitrate= 273.6kbits/s dup=1 drop=0 speed=5.38x    frame=33492 fps=129 q=32.0 size=   46676kB time=00:23:17.05 bitrate= 273.7kbits/s dup=1 drop=0 speed=5.38x    frame=33554 fps=129 q=32.0 size=   46763kB time=00:23:19.61 bitrate= 273.7kbits/s dup=1 drop=0 speed=5.38x    frame=33598 fps=129 q=32.0 size=   46844kB time=00:23:21.49 bitrate= 273.8kbits/s dup=1 drop=0 speed=5.37x    frame=33646 fps=129 q=32.0 size=   46933kB time=00:23:23.45 bitrate= 274.0kbits/s dup=1 drop=0 speed=5.37x    frame=33699 fps=129 q=32.0 size=   47045kB time=00:23:25.67 bitrate= 274.2kbits/s dup=1 drop=0 speed=5.37x    frame=33777 fps=129 q=32.0 size=   47127kB time=00:23:28.96 bitrate= 274.0kbits/s dup=1 drop=0 speed=5.37x    frame=33852 fps=129 q=32.0 size=   47242kB time=00:23:32.03 bitrate= 274.1kbits/s dup=1 drop=0 speed=5.37x    frame=33906 fps=129 q=32.0 size=   47345kB time=00:23:34.33 bitrate= 274.2kbits/s dup=1 drop=0 speed=5.37x    frame=33958 fps=129 q=32.0 size=   47445kB time=00:23:36.47 bitrate= 274.4kbits/s dup=1 drop=0 speed=5.37x    frame=34028 fps=129 q=32.0 size=   47538kB time=00:23:39.41 bitrate= 274.4kbits/s dup=1 drop=0 speed=5.37x    frame=34081 fps=129 q=32.0 size=   47637kB time=00:23:41.63 bitrate= 274.5kbits/s dup=1 drop=0 speed=5.37x    frame=34126 fps=129 q=32.0 size=   47766kB time=00:23:43.46 bitrate= 274.9kbits/s dup=1 drop=0 speed=5.37x    frame=34177 fps=129 q=32.0 size=   47832kB time=00:23:45.64 bitrate= 274.8kbits/s dup=1 drop=0 speed=5.36x    frame=34231 fps=129 q=32.0 size=   47894kB time=00:23:47.86 bitrate= 274.8kbits/s dup=1 drop=0 speed=5.36x    frame=34283 fps=128 q=32.0 size=   47981kB time=00:23:49.99 bitrate= 274.9kbits/s dup=1 drop=0 speed=5.36x    frame=34320 fps=128 q=32.0 size=   48118kB time=00:23:51.61 bitrate= 275.3kbits/s dup=1 drop=0 speed=5.36x    frame=34364 fps=128 q=32.0 size=   48323kB time=00:23:53.40 bitrate= 276.2kbits/s dup=1 drop=0 speed=5.35x    frame=34417 fps=128 q=32.0 size=   48464kB time=00:23:55.62 bitrate= 276.5kbits/s dup=1 drop=0 speed=5.35x    frame=34477 fps=128 q=32.0 size=   48577kB time=00:23:58.14 bitrate= 276.7kbits/s dup=1 drop=0 speed=5.35x    frame=34509 fps=128 q=32.0 size=   48682kB time=00:23:59.46 bitrate= 277.0kbits/s dup=1 drop=0 speed=5.34x    frame=34544 fps=128 q=32.0 size=   48778kB time=00:24:00.91 bitrate= 277.3kbits/s dup=1 drop=0 speed=5.34x    frame=34585 fps=128 q=32.0 size=   48905kB time=00:24:02.62 bitrate= 277.7kbits/s dup=1 drop=0 speed=5.33x    frame=34625 fps=128 q=32.0 size=   49027kB time=00:24:04.33 bitrate= 278.1kbits/s dup=1 drop=0 speed=5.33x    frame=34677 fps=128 q=32.0 size=   49095kB time=00:24:06.46 bitrate= 278.0kbits/s dup=1 drop=0 speed=5.33x    frame=34719 fps=128 q=32.0 size=   49169kB time=00:24:08.21 bitrate= 278.1kbits/s dup=1 drop=0 speed=5.33x    frame=34782 fps=128 q=32.0 size=   49245kB time=00:24:10.85 bitrate= 278.0kbits/s dup=1 drop=0 speed=5.32x    frame=34829 fps=128 q=32.0 size=   49360kB time=00:24:12.82 bitrate= 278.3kbits/s dup=1 drop=0 speed=5.32x    frame=34913 fps=128 q=32.0 size=   49482kB time=00:24:16.32 bitrate= 278.3kbits/s dup=1 drop=0 speed=5.33x    frame=35004 fps=128 q=32.0 size=   49597kB time=00:24:20.11 bitrate= 278.3kbits/s dup=1 drop=0 speed=5.33x    frame=35091 fps=128 q=32.0 size=   49670kB time=00:24:23.74 bitrate= 278.0kbits/s dup=1 drop=0 speed=5.33x    frame=35167 fps=128 q=32.0 size=   49762kB time=00:24:26.94 bitrate= 277.9kbits/s dup=1 drop=0 speed=5.33x    [mp4 @ 0x3a46560] Starting second pass: moving the moov atom to the beginning of the file
frame=35222 fps=128 q=-1.0 Lsize=   50668kB time=00:24:29.03 bitrate= 282.5kbits/s dup=1 drop=0 speed=5.33x    
video:40583kB audio:9249kB subtitle:0kB other streams:0kB global headers:0kB muxing overhead: 1.676074%
[libx264 @ 0x39d52a0] frame I:361   Avg QP:21.90  size: 15482
[libx264 @ 0x39d52a0] frame P:11541 Avg QP:24.52  size:  2446
[libx264 @ 0x39d52a0] frame B:23320 Avg QP:27.30  size:   332
[libx264 @ 0x39d52a0] consecutive B-frames:  3.9% 13.0% 31.5% 51.6%
[libx264 @ 0x39d52a0] mb I  I16..4: 23.5% 53.7% 22.8%
[libx264 @ 0x39d52a0] mb P  I16..4:  5.1%  6.4%  1.1%  P16..4: 29.7%  4.0%  3.5%  0.1%  0.0%    skip:50.0%
[libx264 @ 0x39d52a0] mb B  I16..4:  0.2%  0.3%  0.1%  B16..8: 12.2%  0.8%  0.1%  direct: 0.8%  skip:85.6%  L0:41.5% L1:56.8% BI: 1.7%
[libx264 @ 0x39d52a0] 8x8 transform intra:51.2% inter:60.2%
[libx264 @ 0x39d52a0] coded y,uvDC,uvAC intra: 26.7% 44.6% 8.4% inter: 1.7% 4.5% 0.0%
[libx264 @ 0x39d52a0] i16 v,h,dc,p: 47% 27% 18%  8%
[libx264 @ 0x39d52a0] i8 v,h,dc,ddl,ddr,vr,hd,vl,hu: 22% 16% 45%  3%  2%  3%  3%  3%  3%
[libx264 @ 0x39d52a0] i4 v,h,dc,ddl,ddr,vr,hd,vl,hu: 26% 21% 19%  5%  6%  6%  6%  5%  5%
[libx264 @ 0x39d52a0] i8c dc,h,v,p: 50% 24% 22%  5%
[libx264 @ 0x39d52a0] Weighted P-Frames: Y:2.4% UV:1.4%
[libx264 @ 0x39d52a0] ref P L0: 62.0% 10.4% 12.0%  4.2%  3.3%  3.2%  2.8%  1.5%  0.6%  0.0%
[libx264 @ 0x39d52a0] ref B L0: 82.4%  6.8%  5.1%  1.8%  1.5%  1.6%  0.8%
[libx264 @ 0x39d52a0] ref B L1: 93.6%  6.4%
[libx264 @ 0x39d52a0] kb/s:226.30
